<?xml version="1.0" standalone="no"?>
<!DOCTYPE svg PUBLIC "-//W3C//DTD SVG 20010904//EN"
 "http://www.w3.org/TR/2001/REC-SVG-20010904/DTD/svg10.dtd">
<svg version="1.0" xmlns="http://www.w3.org/2000/svg"
 width="862.000000pt" height="862.000000pt" viewBox="0 0 862.000000 862.000000"
 preserveAspectRatio="xMidYMid meet">
<metadata>
Created by potrace 1.11, written by Peter Selinger 2001-2013
</metadata>
<g transform="translate(0.000000,862.000000) scale(0.100000,-0.100000)"
fill="#000000" stroke="none">
<path d="M1730 8614 c-100 -15 -191 -30 -225 -38 -65 -14 -86 -20 -140 -36
-418 -124 -798 -405 -1041 -771 -57 -86 -147 -252 -182 -335 -20 -49 -82 -237
-87 -264 -9 -49 -14 -72 -19 -88 -3 -9 -8 -35 -11 -57 -3 -22 -9 -51 -12 -65
-11 -41 -13 -5187 -2 -5260 16 -111 18 -123 33 -190 38 -165 77 -282 143 -419
148 -310 393 -590 682 -779 248 -162 530 -263 846 -302 86 -10 5182 -7 5245 4
82 14 224 47 295 68 495 146 928 511 1160 976 29 59 56 118 60 132 4 14 11 30
15 35 20 25 90 284 105 385 3 19 9 64 14 100 11 76 8 5184 -3 5245 -44 244
-96 415 -178 583 -128 265 -342 525 -573 697 -22 16 -42 32 -45 36 -14 15
-206 126 -288 166 -125 60 -332 127 -478 155 l-119 23 -2585 1 c-1422 1 -2596
0 -2610 -2z"/>
</g>
</svg>
