<?xml version="1.0" standalone="no"?>
<!DOCTYPE svg PUBLIC "-//W3C//DTD SVG 20010904//EN"
 "http://www.w3.org/TR/2001/REC-SVG-20010904/DTD/svg10.dtd">
<svg version="1.0" xmlns="http://www.w3.org/2000/svg"
 width="16.000000pt" height="16.000000pt" viewBox="0 0 16.000000 16.000000"
 preserveAspectRatio="xMidYMid meet">
<metadata>
Created by potrace 1.11, written by Peter Selinger 2001-2013
</metadata>
<g transform="translate(0.000000,16.000000) scale(0.006038,-0.006038)"
fill="#000000" stroke="none">
<path d="M1290 2639 c0 -6 -4 -8 -8 -5 -5 3 -76 -33 -158 -81 -82 -47 -167
-95 -189 -107 -42 -24 -346 -199 -405 -235 -19 -11 -55 -32 -80 -46 -25 -14
-58 -33 -75 -43 -16 -10 -61 -35 -98 -56 -45 -26 -77 -52 -95 -79 l-27 -41 0
-620 0 -621 23 -37 c24 -39 83 -78 272 -181 30 -16 62 -35 70 -42 8 -7 22 -15
30 -18 8 -4 38 -20 65 -36 28 -16 88 -51 134 -78 47 -26 96 -55 110 -63 266
-155 401 -230 414 -230 9 0 17 -6 17 -12 0 -9 4 -8 10 2 7 11 10 11 10 2 0 -7
4 -10 10 -7 5 3 19 8 30 10 16 3 694 389 780 444 14 8 34 21 45 27 121 65 218
124 243 147 57 53 56 31 56 677 0 327 -3 611 -7 631 -10 51 -48 85 -193 168
-283 164 -561 325 -590 341 -17 10 -98 57 -180 103 -137 79 -214 110 -214 86z"/>
</g>
</svg>
